<?xml version="1.0" encoding="UTF-8"?>
<svg width="2414.6" height="1200.1" version="1.1" viewBox="0 0 638.85 317.52" xmlns="http://www.w3.org/2000/svg">
 <g transform="translate(-86.278 -965.09)">
  <g transform="matrix(.23132 -.010198 .007382 .21224 613.51 1172.8)" fill="none" stroke="#e2e2e2" stroke-linejoin="round">
   <path d="m359.96-219.49-347.36 147.44-13.159 450.53 347.36-147.44z" stroke-width="27.894"/>
   <path transform="matrix(1.142 .054871 -.039722 1.2447 -8718.8 -3941.8)" d="m7892 2582.6-145.95 174.89-306.51-110.8-16.354 7.1875 318.66 113.69 299.58-131.66z" stroke-width="20"/>
   <path d="m12.602-72.045-359.4-159-13.159 450.53 359.4 159z" stroke-width="27.894"/>
  </g>
  <g fill="#e2e2e2">
   <g transform="scale(1.0406 .96099)" stroke-width="3.4288" aria-label="c">
    <path d="m108.34 1187.1q0-24.687 8.8873-41.145 9.2165-16.787 25.016-25.345 15.8-8.5581 35.878-8.5581 12.837 0 25.345 2.9624 12.508 2.9625 20.737 7.5707 0.98748 12.179 0 24.029-0.65832 11.85-2.6333 23.041h-21.066l-6.9124-24.029q-2.3041-7.8998-4.9374-10.204-1.975-1.6458-4.9374-2.9624t-6.5832-1.3166q-9.2165 0-15.8 11.521-6.5832 11.191-6.5832 38.512 0 25.016 7.2415 37.853 7.2415 12.508 24.358 12.508 10.533 0 18.433-3.6208 7.8998-3.9499 12.179-7.5707l9.2165 7.2415q-4.2791 13.166-18.433 21.725-13.825 8.5582-35.549 8.5582-22.054 0-36.208-9.2165-14.154-9.5457-21.066-25.674-6.5832-16.129-6.5832-35.878z"/>
   </g>
   <g transform="scale(1.0002 .99982)" stroke-width="3.4075" aria-label="d">
    <path d="m417.41 1208.8q-23.226 0-38.6-16.029-15.048-16.356-15.048-52.012 0-36.965 18.319-56.592t52.012-19.627q8.8322 0 17.664 1.6356v-40.563q0-5.8882-5.561-6.8696l-15.702-2.2898v-16.683q13.085-3.5983 29.114-5.561 16.356-1.9627 29.114-2.2898l5.8882 5.561v181.55q0 3.9255 1.6356 5.5611 1.6356 1.3085 4.2526 1.6356l11.776 1.6356v16.029q-4.2526 1.3084-12.758 2.944-8.178 1.6356-16.029 1.6356-20.609 0-28.459-16.029-6.8695 7.5237-16.356 12.103-9.4865 4.2526-21.263 4.2526zm-8.5051-72.948q0 26.824 5.8882 38.273 6.2153 11.449 17.664 11.449 10.468 0 19.3-4.5796v-95.192q-5.8882-2.944-14.393-2.944-13.085 0-20.609 11.449-7.5238 11.122-7.8509 41.544z"/>
   </g>
   <path d="m338.35 995.4c-7.7268 0-15.453 2.2537-23.18 6.761-7.5122 4.2929-14.273 9.9808-20.283 17.064-5.795 6.8684-10.517 14.595-14.166 23.18-3.649 8.5855-5.4731 17.064-5.4731 25.435v4.8291l-20.605 3.8638v16.098l13.132 2.3678h86.029v-22.007h-37.347v-19.317c0-10.517 2.039-17.278 6.117-20.283 4.0781-3.0049 9.7661-4.615 17.064-4.8295 2.7904-0.2148 6.5465 0.1075 11.269 0.9655 4.9366 0.644 9.7658 1.3952 14.488 2.2538l8.3707-22.859c-4.9366-3.6488-10.517-6.7609-16.742-9.3364-6.0098-2.7904-12.234-4.1857-18.673-4.1857z" stroke="#e2e2e2" stroke-width="7.7043"/>
  </g>
  <path d="m273.37 1095 1.2085 0.218v84.352c0 1.9319-0.53646 3.4344-1.6097 4.5075-0.85851 1.0731-2.1463 1.7172-3.8634 1.9318l-12.556 2.2538v16.742h90.147v-16.742l-23.824-2.5759c-1.9317-0.2147-3.4341-0.8582-4.5074-1.9314-0.85852-1.0732-1.2879-2.4686-1.2879-4.1858v-84.57z" fill="none" stroke="#e2e2e2" stroke-width="7.7043"/>
  <g transform="matrix(.94336 -.48491 .0062036 1.0568 0 0)" fill="#e2e2e2" stroke-width=".94082" aria-label="Y">
   <path d="m653.34 1408.8h18.567l14.994 23.462 14.994-23.462h18.611l-25.094 38.103v27.74h-16.979v-27.74z"/>
  </g>
  <g transform="matrix(.94829 .35338 .0062036 1.0568 0 0)" fill="#e2e2e2" stroke-width=".93959" aria-label="X">
   <path d="m609.2 926.83 22.815 33.561h-17.661l-15.371-22.462-15.239 22.462h-17.75l22.815-33.561-21.934-32.196h17.705l14.402 21.185 14.358-21.185h17.794z"/>
  </g>
  <rect transform="matrix(.94044 .33995 -.6407 .76779 0 0)" x="1202" y="825.95" width="89.198" height="106.34" fill="none" stroke="#e2e2e2" stroke-linecap="square" stroke-width="5.4906" style="paint-order:markers fill stroke"/>
  <g transform="matrix(.89062 .31853 -.7189 .86569 0 0)" fill="#e2e2e2" stroke-width=".95217" aria-label="Z">
   <path d="m1288.8 752.35h56.014v10.399l-35.751 43.249h36.778v12.988h-58.067v-10.399l35.751-43.249h-34.724z"/>
  </g>
 </g>
</svg>
