<?xml version="1.0" encoding="UTF-8"?>
<!-- Created with Inkscape (http://www.inkscape.org/) -->
<svg width="122.44mm" height="27.927mm" version="1.1" viewBox="0 0 121.49 27.711" xmlns="http://www.w3.org/2000/svg">
 <g transform="translate(-3.0004,-3.0026)" stroke-width=".26458">
  <g transform="translate(-49.833,-131.8)" aria-label="c">
   <path d="m66.238 154.53q0.889 0 1.6002-0.1778-1.0414 0.9652-2.4384 1.5494-1.3716 0.5588-2.9718 0.5588-1.5748 0-2.9718-0.5334-1.3716-0.5588-2.413-1.4986-1.016-0.9652-1.6256-2.2352-0.5842-1.2954-0.5842-2.7432 0-1.397 0.508-2.6162t1.3716-2.1336q0.889-0.9398 2.0828-1.4986 1.1938-0.5842 2.54-0.6604-0.9398 1.0668-1.3716 2.3876t-0.4318 2.9718q0 1.4732 0.508 2.6924 0.5334 1.2192 1.4478 2.1082 0.9144 0.8636 2.1336 1.3462t2.6162 0.4826zm2.794-7.493q-0.1778 0.4826-0.5334 0.8128-0.3302 0.3302-0.762 0.508-0.4064 0.1778-0.8636 0.1778t-0.9144-0.1778-0.8128-0.508q-0.3302-0.3556-0.508-0.762-0.1524-0.4318-0.1778-0.889 0-0.4826 0.1778-0.9398 0.2794-0.6604 0.2286-1.143-0.0254-0.508-0.1778-0.8636-0.1778-0.381-0.508-0.6604 0.6858 0.0508 1.3462 0.1778 0.5842 0.127 1.2192 0.3556t1.1938 0.635q0.3556 0.2794 0.635 0.6604 0.3048 0.3556 0.4572 0.8128 0.1778 0.4318 0.1778 0.889 0.0254 0.4572-0.1778 0.9144z"/>
  </g>
  <g transform="translate(-48.167,-131.83)" aria-label="f">
   <path d="m81.811 142.9q-0.381 0.8128-1.2192 1.0922-0.8128 0.2794-1.6002-0.0762-0.8128-0.381-1.1176-1.1938-0.2794-0.8382 0.1016-1.651 0.2794-0.5842 0.254-1.0414 0-0.4572-0.127-0.762-0.127-0.3556-0.4064-0.635 0.5334 0 1.0922 0.127 0.4826 0.127 1.0414 0.381 0.5842 0.254 1.143 0.7366 1.6256 1.4224 0.8382 3.0226zm-11.176 1.016q0-0.762 0.1778-1.3716 0.1778-0.635 0.4826-1.1176 0.3048-0.508 0.6858-0.889 0.381-0.4064 0.7874-0.7112 0.9398-0.6858 2.1336-1.0668v17.704h-4.2672zm5.8166 4.9784q0.5842-0.2794 1.2446-0.7366 0.5334-0.381 1.1938-0.9652 0.6604-0.6096 1.2446-1.4986v6.4008q-0.635-0.889-1.2954-1.4986-0.635-0.6096-1.1684-0.9906-0.635-0.4572-1.2192-0.7112z"/>
  </g>
  <g transform="translate(-47.497,-131.86)" aria-label="d">
   <path d="m89.945 156.37q-1.3716 0-2.5654-0.4826-1.1938-0.508-2.0828-1.3462-0.889-0.8636-1.397-2.0066t-0.508-2.4384 0.508-2.4384 1.397-1.9812q0.889-0.8636 2.0828-1.3462 1.1938-0.508 2.5654-0.508h0.4064q-0.4572 0.381-0.8636 1.016-0.381 0.6096-0.6604 1.4224-0.254 0.8128-0.4064 1.8034-0.1524 0.9652-0.1524 2.032t0.1524 2.0574q0.1524 0.9652 0.4064 1.778 0.2794 0.8128 0.6604 1.4478 0.4064 0.6096 0.8636 0.9906zm2.2098-16.434q1.1684-0.508 2.1844-1.0414 1.016-0.5588 1.7526-1.016 0.8636-0.508 1.5748-1.016v19.634h-4.445v-13.437q0-0.9652-0.1778-1.5748-0.1524-0.6096-0.3556-0.9652-0.254-0.4064-0.5334-0.5842z"/>
  </g>
  <g transform="translate(-46.312,-131.78)" aria-label=".">
   <path d="m104.41 153.69q0 0.5588-0.2286 1.0668-0.2032 0.4826-0.5588 0.8636-0.3556 0.3556-0.8382 0.5842-0.4826 0.2032-1.0414 0.2032t-1.0668-0.2032q-0.4826-0.2286-0.8382-0.5842-0.3556-0.381-0.5842-0.8636-0.2032-0.508-0.2032-1.0668 0-0.5334 0.2032-1.016 0.2286-0.508 0.5842-0.8636t0.8382-0.5588q0.508-0.2286 1.0668-0.2286t1.0414 0.2286q0.4826 0.2032 0.8382 0.5588t0.5588 0.8636q0.2286 0.4826 0.2286 1.016z"/>
  </g>
  <g transform="rotate(.41569 18134 -6281.7)" aria-label="x">
   <path d="m121.3 142.61q0.3302 0.254 0.5334 0.6096t0.254 0.762q0.0762 0.4064-0.0254 0.8128t-0.3556 0.7366q-0.5334 0.7112-1.397 0.8382-0.8382 0.1016-1.5494-0.4318-0.508-0.381-0.9398-0.4572-0.4064-0.0762-0.7366-0.0254-0.381 0.0762-0.6858 0.2794 0.1016-0.508 0.3302-1.016 0.2032-0.4318 0.5588-0.9398 0.3556-0.5334 0.9398-0.9652 1.7272-1.27 3.0734-0.2032zm1.016 12.878h-4.9022l-10.312-13.386h4.9276zm-11.176-4.3688q0 0.8636 0.2032 1.7018 0.1778 0.7112 0.5588 1.4986 0.4064 0.762 1.1938 1.27h-6.1976q0.508-0.5334 1.2446-1.2954t1.397-1.4732q0.7874-0.8382 1.6002-1.7018z"/>
  </g>
  <g transform="translate(-44.321,-131.88)" aria-label="y">
   <path d="m123.25 159.42q-0.1524-0.4064-0.1524-0.8382 0-0.4064 0.1524-0.7874 0.1524-0.3556 0.4318-0.6604 0.3048-0.2794 0.6858-0.4318 0.8128-0.3302 1.6002 0t1.1176 1.1176q0.254 0.5842 0.5842 0.8636 0.3302 0.3048 0.635 0.4318 0.3556 0.127 0.7366 0.1016-0.3556 0.4064-0.8128 0.7112-0.4064 0.2794-0.9652 0.5334t-1.27 0.3302q-2.1082 0.1778-2.7432-1.3716zm12.167-11.049q-0.2794-1.0668-0.7366-2.0828-0.381-0.8636-1.016-1.7526-0.6096-0.889-1.4986-1.4732h6.9088q-0.5588 0.7874-1.1938 1.7018t-1.1938 1.7272q-0.6604 0.9398-1.27 1.8796zm-1.9812 3.9624-2.6416 4.1148-7.9248-13.386h5.1054z"/>
  </g>
  <g transform="translate(-43.061,-131.81)" aria-label="z">
   <path d="m141.07 148.82v-5.7404h5.1816q-0.9652 0.762-1.905 1.6764-0.8128 0.7874-1.7018 1.8288-0.889 1.016-1.5748 2.2352zm13.31 1.905v5.715h-5.1816q0.9652-0.7366 1.905-1.651 0.8128-0.762 1.6764-1.8034 0.889-1.0414 1.6002-2.2606zm-4.2672-7.6454h4.9022l-9.8298 13.36h-4.9022z"/>
  </g>
 </g>
 <text x="104.64236" y="49.47488" font-family="sans-serif" font-size="25.4px" stroke-width=".26458" style="line-height:1.25" xml:space="preserve"><tspan x="104.64236" y="49.47488" font-family="sans-serif" stroke-width=".26458"/></text>
 <path d="m115.15 2.7445a4.153 4.153 0 0 0-4.1532 4.1532 4.153 4.153 0 0 0 4.1532 4.1532 4.153 4.153 0 0 0 4.1527-4.1532 4.153 4.153 0 0 0-4.1527-4.1532zm0 0.74207a3.4114 3.4114 0 0 1 3.4112 3.4112 3.4114 3.4114 0 0 1-3.4112 3.4112 3.4114 3.4114 0 0 1-3.4117-3.4112 3.4114 3.4114 0 0 1 3.4117-3.4112z" stroke-linecap="round" stroke-width=".095801" style="paint-order:fill markers stroke"/>
 <text transform="scale(.98478 1.0155)" x="114.88239" y="9.0668278" fill="#000000" font-family="sans-serif" font-size="6.3699px" font-weight="bold" stroke-width=".066353" style="line-height:1.25" xml:space="preserve"><tspan x="114.88239" y="9.0668278" fill="#000000" font-family="sans-serif" font-weight="bold" stroke-width=".066353">R</tspan></text>
</svg>
